<svg xmlns="http://www.w3.org/2000/svg" xmlns:xlink="http://www.w3.org/1999/xlink" width="329.669" height="65.243" viewBox="0 0 329.669 65.243">
  <defs>
    <linearGradient id="linear-gradient" y1="-0.051" x2="1.053" y2="1.159" gradientUnits="objectBoundingBox">
      <stop offset="0" stop-color="#10a0da"/>
      <stop offset="1" stop-color="#022e83"/>
    </linearGradient>
  </defs>
  <g id="Group_28061" data-name="Group 28061" transform="translate(-886.776 -495)">
    <path id="Path_54466" data-name="Path 54466" d="M11.935,0H54.9A11.935,11.935,0,0,1,66.834,11.935V53.308A11.935,11.935,0,0,1,54.9,65.243H11.935A11.935,11.935,0,0,1,0,53.308V11.935A11.935,11.935,0,0,1,11.935,0Z" transform="translate(886.776 495)" fill="url(#linear-gradient)"/>
    <g id="Group_25527" data-name="Group 25527" transform="translate(968.728 538.751)">
      <path id="im" d="M17.782,9.687V4.9a4.084,4.084,0,0,0-.4-2.174,1.375,1.375,0,0,0-1.2-.569,1.83,1.83,0,0,0-1.094.347,2.054,2.054,0,0,0-.719.959,5.938,5.938,0,0,0-.235,1.966V9.687h-2.4V5.113a6.428,6.428,0,0,0-.187-1.836,1.661,1.661,0,0,0-.562-.846,1.48,1.48,0,0,0-.907-.278A1.788,1.788,0,0,0,9,2.5a2.1,2.1,0,0,0-.724.985,6.079,6.079,0,0,0-.24,2v4.2H5.647V.243H8.036V1.328a4.059,4.059,0,0,1,1.356-1A3.972,3.972,0,0,1,11.017,0a3.03,3.03,0,0,1,1.6.434A3.141,3.141,0,0,1,13.772,1.7,3.753,3.753,0,0,1,16.963,0a3.343,3.343,0,0,1,1.778.469,2.712,2.712,0,0,1,1.1,1.224,6.519,6.519,0,0,1,.336,2.457V9.687ZM0,9.687V.243H2.389V9.687Z" transform="translate(0.397 5.72)" fill="#002e83"/>
      <path id="Subtraction_2" data-name="Subtraction 2" d="M4.524,9.93a4.181,4.181,0,0,1-1.715-.355A4.622,4.622,0,0,1,1.343,8.511,4.788,4.788,0,0,1,.336,6.919,5.43,5.43,0,0,1,0,4.983a5.834,5.834,0,0,1,.325-1.99A4.664,4.664,0,0,1,1.3,1.4,4.407,4.407,0,0,1,2.737.349,4.212,4.212,0,0,1,4.455,0a4.047,4.047,0,0,1,1.6.321,4.395,4.395,0,0,1,1.386.964V.243H9.816V9.687H7.445v-1a4.7,4.7,0,0,1-1.4.951A3.954,3.954,0,0,1,4.524,9.93Zm.418-7.743A2.432,2.432,0,0,0,3.1,2.964a2.8,2.8,0,0,0-.732,1.992A2.829,2.829,0,0,0,3.116,6.97a2.434,2.434,0,0,0,1.835.79,2.48,2.48,0,0,0,1.866-.777,2.84,2.84,0,0,0,.741-2.036,2.759,2.759,0,0,0-.741-2A2.512,2.512,0,0,0,4.943,2.188Z" transform="translate(23.53 5.72)" fill="#00a0da"/>
      <path id="Subtraction_1" data-name="Subtraction 1" d="M4.917,13.385a6.915,6.915,0,0,1-2.345-.347,4.237,4.237,0,0,1-1.6-1.02A4.172,4.172,0,0,1,0,10.382H2.624a2.179,2.179,0,0,0,.9.6,3.749,3.749,0,0,0,1.3.2,3.454,3.454,0,0,0,1.543-.3,1.793,1.793,0,0,0,.824-.764,3.873,3.873,0,0,0,.24-1.615,3.959,3.959,0,0,1-1.316.9,4.218,4.218,0,0,1-1.56.273A4.474,4.474,0,0,1,2.79,9.345,4.443,4.443,0,0,1,1.325,8.316,4.58,4.58,0,0,1,.338,6.762,5.4,5.4,0,0,1,.009,4.844,5.613,5.613,0,0,1,.357,2.817,4.436,4.436,0,0,1,1.4,1.233,4.342,4.342,0,0,1,2.79.308,4.287,4.287,0,0,1,4.42,0,4.047,4.047,0,0,1,5.967.3a4.927,4.927,0,0,1,1.46.985V.243H9.8v8.09a7.944,7.944,0,0,1-.242,2.079,3.7,3.7,0,0,1-.726,1.445A4.03,4.03,0,0,1,7.2,13,6.3,6.3,0,0,1,4.917,13.385ZM4.96,2.214A2.494,2.494,0,0,0,3.1,2.964a2.606,2.606,0,0,0-.732,1.888,2.643,2.643,0,0,0,.75,1.936A2.555,2.555,0,0,0,5,7.543,2.452,2.452,0,0,0,6.83,6.805,2.667,2.667,0,0,0,7.549,4.87a2.635,2.635,0,0,0-.724-1.918A2.51,2.51,0,0,0,4.96,2.214Z" transform="translate(36.457 5.72)" fill="#00a0da"/>
      <path id="Path" d="M2.389,9.444V0H0V9.444Z" transform="translate(49.523 5.963)" fill="#00a0da"/>
      <path id="Path-2" data-name="Path" d="M2.38,15.407V0H0V15.407Z" transform="translate(54.935 0)" fill="#00a0da"/>
      <path id="Path-3" data-name="Path" d="M1.534,3.073A1.447,1.447,0,0,0,2.6,2.626a1.476,1.476,0,0,0,.445-1.081A1.494,1.494,0,0,0,2.593.451,1.465,1.465,0,0,0,1.517,0,1.464,1.464,0,0,0,.445.443,1.452,1.452,0,0,0,0,1.51,1.518,1.518,0,0,0,.449,2.617,1.468,1.468,0,0,0,1.534,3.073Z" transform="translate(60.007 2.074)" fill="#00a0da"/>
      <path id="Path_Copy_2" data-name="Path Copy 2" d="M1.534,3.073A1.447,1.447,0,0,0,2.6,2.626a1.476,1.476,0,0,0,.445-1.081A1.494,1.494,0,0,0,2.593.451,1.465,1.465,0,0,0,1.517,0,1.464,1.464,0,0,0,.445.443,1.452,1.452,0,0,0,0,1.51,1.518,1.518,0,0,0,.449,2.617,1.468,1.468,0,0,0,1.534,3.073Z" transform="translate(49.172 2.074)" fill="#00a0da"/>
      <path id="Path_Copy_2-2" data-name="Path Copy 2" d="M1.534,3.073A1.447,1.447,0,0,0,2.6,2.626a1.476,1.476,0,0,0,.445-1.081A1.494,1.494,0,0,0,2.593.451,1.465,1.465,0,0,0,1.517,0,1.464,1.464,0,0,0,.445.443,1.452,1.452,0,0,0,0,1.51,1.518,1.518,0,0,0,.449,2.617,1.468,1.468,0,0,0,1.534,3.073Z" transform="translate(0 2.074)" fill="#022e83"/>
      <path id="Path-4" data-name="Path" d="M2.389,9.444V0H0V9.444Z" transform="translate(60.329 5.963)" fill="#00a0da"/>
      <path id="Path-5" data-name="Path" d="M3.592,12.925v-7.4H5V3.481H3.592V0H1.22V3.481H0v2.04H1.22v7.4Z" transform="translate(65.062 2.482)" fill="#00a0da"/>
      <path id="Path-6" data-name="Path" d="M4.115,12.9,10.06,0H7.619L4.9,5.929,2.432,0H0L3.609,8.741,1.656,12.9Z" transform="translate(71.415 5.963)" fill="#00a0da"/>
      <path id="Path-7" data-name="Path" d="M0,.433.223,0,.372.144Z" transform="matrix(0.208, 0.978, -0.978, 0.208, 76.792, 1.985)" fill="#06307f"/>
      <path id="Path-8" data-name="Path" d="M.074,3.046,0,2.238,2.9,0,.3,2.527Z" transform="matrix(0.208, 0.978, -0.978, 0.208, 79.398, 1.051)" fill="#fff"/>
      <path id="Path_-_Outline" data-name="Path - Outline" d="M.238,4.957,0,2.372,3.078,0,3.6.6,1.048,3.072Z" transform="matrix(0.208, 0.978, -0.978, 0.208, 79.619, 0.578)" fill="rgba(0,0,0,0)"/>
    </g>
    <path id="Path-9" data-name="Path" d="M0,.5.258,0,.429.166Z" transform="matrix(0.208, 0.978, -0.978, 0.208, 1064.225, 559.596)" fill="#06307f"/>
    <g id="Group_25528" data-name="Group 25528" transform="matrix(0.122, -0.993, 0.993, 0.122, 892.708, 540.985)">
      <path id="Subtraction_3" data-name="Subtraction 3" d="M36.649,40.462h0L8.91,35.743l1.82-8.414L0,20.1l14.181-9.812v-.021C14.256,9.221,14.916,0,15.356,0c.016,0,.032.012.047.037L36.648,40.461ZM13.695,19.56,34.316,38.311,14.339,12.735h0L2.477,19.56Z" transform="translate(0 0)" fill="#fff"/>
    </g>
    <path id="Path_54954" data-name="Path 54954" d="M3.324-33.509H7.563v22.43H3.324Zm8.554,5.84h4.163v1.906a7.105,7.105,0,0,1,2.373-1.754A6.932,6.932,0,0,1,21.26-28.1a5.289,5.289,0,0,1,2.808.762,5.51,5.51,0,0,1,2.014,2.226,6.722,6.722,0,0,1,2.434-2.226,6.637,6.637,0,0,1,3.151-.762,5.834,5.834,0,0,1,3.113.823,4.758,4.758,0,0,1,1.93,2.15,11.487,11.487,0,0,1,.588,4.315v9.728H33.1V-19.5a7.2,7.2,0,0,0-.7-3.82,2.4,2.4,0,0,0-2.1-1,3.192,3.192,0,0,0-1.914.61,3.6,3.6,0,0,0-1.258,1.685,10.472,10.472,0,0,0-.412,3.454v7.487H22.521v-8.036a11.313,11.313,0,0,0-.329-3.225,2.917,2.917,0,0,0-.986-1.487,2.592,2.592,0,0,0-1.59-.488,3.132,3.132,0,0,0-1.888.618,3.683,3.683,0,0,0-1.269,1.731,10.7,10.7,0,0,0-.42,3.507v7.38H11.878Zm29.352,0h4.163v1.906a7.1,7.1,0,0,1,2.373-1.754,6.932,6.932,0,0,1,2.846-.579,5.289,5.289,0,0,1,2.808.762,5.51,5.51,0,0,1,2.014,2.226,6.722,6.722,0,0,1,2.434-2.226,6.637,6.637,0,0,1,3.151-.762,5.834,5.834,0,0,1,3.113.823,4.758,4.758,0,0,1,1.93,2.15,11.486,11.486,0,0,1,.588,4.315v9.728H62.456V-19.5a7.2,7.2,0,0,0-.7-3.82,2.4,2.4,0,0,0-2.1-1,3.192,3.192,0,0,0-1.914.61,3.6,3.6,0,0,0-1.258,1.685,10.472,10.472,0,0,0-.412,3.454v7.487H51.874v-8.036a11.313,11.313,0,0,0-.329-3.225,2.917,2.917,0,0,0-.986-1.487,2.592,2.592,0,0,0-1.59-.488,3.132,3.132,0,0,0-1.888.618,3.683,3.683,0,0,0-1.269,1.731,10.7,10.7,0,0,0-.42,3.507v7.38H41.231ZM72.237-34.5a2.545,2.545,0,0,1,1.878.793,2.633,2.633,0,0,1,.783,1.921,2.6,2.6,0,0,1-.775,1.9,2.515,2.515,0,0,1-1.855.785,2.551,2.551,0,0,1-1.893-.8,2.677,2.677,0,0,1-.783-1.944,2.56,2.56,0,0,1,.775-1.875A2.545,2.545,0,0,1,72.237-34.5Zm-2.081,6.831h4.163v16.59H70.156Zm20.2,0h4.147v14.211q0,4.208-1.693,6.191-2.272,2.684-6.846,2.684a11.991,11.991,0,0,1-4.1-.61,7.374,7.374,0,0,1-2.806-1.792,7.3,7.3,0,0,1-1.693-2.874h4.59A3.793,3.793,0,0,0,83.528-8.8a6.5,6.5,0,0,0,2.272.358,5.989,5.989,0,0,0,2.7-.518A3.128,3.128,0,0,0,89.94-10.3a6.8,6.8,0,0,0,.419-2.836,6.9,6.9,0,0,1-2.3,1.578,7.319,7.319,0,0,1-2.729.48,7.5,7.5,0,0,1-5.642-2.409,8.472,8.472,0,0,1-2.3-6.1,8.486,8.486,0,0,1,2.44-6.343A7.278,7.278,0,0,1,85.1-28.1a7.017,7.017,0,0,1,2.707.526,8.574,8.574,0,0,1,2.554,1.731Zm-4.315,3.461A4.334,4.334,0,0,0,82.8-22.889a4.568,4.568,0,0,0-1.281,3.316,4.633,4.633,0,0,0,1.311,3.4,4.44,4.44,0,0,0,3.294,1.327,4.261,4.261,0,0,0,3.194-1.3,4.675,4.675,0,0,0,1.258-3.4,4.619,4.619,0,0,0-1.266-3.37A4.361,4.361,0,0,0,86.044-24.208Zm11.7-3.461h3.568v2.089a4.457,4.457,0,0,1,1.54-1.875,3.716,3.716,0,0,1,2.1-.64,3.893,3.893,0,0,1,1.693.427l-1.3,3.583a2.862,2.862,0,0,0-1.2-.366,1.906,1.906,0,0,0-1.624,1.189,10.882,10.882,0,0,0-.663,4.666l.015.808v6.709H97.74Zm23.207,0h4.163v16.59h-4.163v-1.754a8.161,8.161,0,0,1-2.444,1.67,6.841,6.841,0,0,1-2.658.511,7.383,7.383,0,0,1-5.559-2.493,8.7,8.7,0,0,1-2.345-6.2,8.912,8.912,0,0,1,2.269-6.3,7.23,7.23,0,0,1,5.513-2.455,7.007,7.007,0,0,1,2.8.564,7.647,7.647,0,0,1,2.422,1.693Zm-4.376,3.416a4.206,4.206,0,0,0-3.207,1.365,4.918,4.918,0,0,0-1.277,3.5,4.97,4.97,0,0,0,1.3,3.538,4.21,4.21,0,0,0,3.2,1.388,4.288,4.288,0,0,0,3.252-1.365A4.988,4.988,0,0,0,121.13-19.4a4.845,4.845,0,0,0-1.292-3.507A4.342,4.342,0,0,0,116.571-24.253Zm13.25-9.53h4.163v6.114h2.47v3.583h-2.47v13.007h-4.163V-24.086h-2.135v-3.583h2.135ZM140.3-34.5a2.545,2.545,0,0,1,1.878.793,2.633,2.633,0,0,1,.783,1.921,2.6,2.6,0,0,1-.775,1.9,2.515,2.515,0,0,1-1.855.785,2.551,2.551,0,0,1-1.893-.8,2.677,2.677,0,0,1-.783-1.944,2.56,2.56,0,0,1,.775-1.875A2.545,2.545,0,0,1,140.3-34.5Zm-2.081,6.831h4.163v16.59h-4.163Zm15.736-.427a8.793,8.793,0,0,1,4.414,1.174,8.481,8.481,0,0,1,3.225,3.187,8.563,8.563,0,0,1,1.159,4.346A8.712,8.712,0,0,1,161.59-15a8.417,8.417,0,0,1-3.179,3.194,8.779,8.779,0,0,1-4.437,1.151,8.276,8.276,0,0,1-6.092-2.539,8.422,8.422,0,0,1-2.524-6.168,8.394,8.394,0,0,1,2.851-6.48A8.329,8.329,0,0,1,153.959-28.1Zm.069,3.919a4.285,4.285,0,0,0-3.23,1.349,4.793,4.793,0,0,0-1.291,3.454,4.881,4.881,0,0,0,1.275,3.507,4.265,4.265,0,0,0,3.23,1.342,4.315,4.315,0,0,0,3.253-1.357,4.844,4.844,0,0,0,1.3-3.492,4.813,4.813,0,0,0-1.275-3.469A4.314,4.314,0,0,0,154.027-24.177Zm12.13-3.492h4.163v1.7a9.987,9.987,0,0,1,2.565-1.66,6.2,6.2,0,0,1,2.352-.467,5.7,5.7,0,0,1,4.187,1.723,5.917,5.917,0,0,1,1.446,4.33v10.963h-4.117v-7.265a18.38,18.38,0,0,0-.266-3.945,2.7,2.7,0,0,0-.928-1.485,2.6,2.6,0,0,0-1.635-.51,3.065,3.065,0,0,0-2.168.845A4.512,4.512,0,0,0,170.5-21.1a18.862,18.862,0,0,0-.182,3.366v6.656h-4.163Zm27.919-5.84h4.33v8.463h7.487v-8.463h4.315v22.43h-4.315v-9.835h-7.487v9.835h-4.33Zm20.783,5.84h4.208v7.99a11.064,11.064,0,0,0,.321,3.24,2.828,2.828,0,0,0,1.032,1.41,2.952,2.952,0,0,0,1.75.5,3.057,3.057,0,0,0,1.766-.5,2.907,2.907,0,0,0,1.077-1.456,11.166,11.166,0,0,0,.26-3.065v-8.127h4.163v7.029a17.242,17.242,0,0,1-.686,5.947,6.487,6.487,0,0,1-2.47,3,7.561,7.561,0,0,1-4.147,1.044,7.356,7.356,0,0,1-4.414-1.22,6.445,6.445,0,0,1-2.371-3.4,20.61,20.61,0,0,1-.488-5.489Zm22.887-6.4v8.234a7.828,7.828,0,0,1,2.44-1.693,7.023,7.023,0,0,1,2.806-.564,7.242,7.242,0,0,1,5.52,2.455,8.906,8.906,0,0,1,2.272,6.3,8.691,8.691,0,0,1-2.348,6.2,7.4,7.4,0,0,1-5.566,2.493,6.913,6.913,0,0,1-2.668-.511,8.135,8.135,0,0,1-2.455-1.67v1.754h-4.132V-34.073Zm4.376,9.82a4.346,4.346,0,0,0-3.263,1.342,4.836,4.836,0,0,0-1.3,3.507,4.978,4.978,0,0,0,1.3,3.576,4.31,4.31,0,0,0,3.263,1.365,4.231,4.231,0,0,0,3.21-1.388,4.96,4.96,0,0,0,1.3-3.538,4.909,4.909,0,0,0-1.281-3.5A4.244,4.244,0,0,0,242.122-24.253Z" transform="translate(965.662 536.263)" fill="#002e83"/>
  </g>
</svg>
